<svg width="81" height="81" viewBox="0 0 81 81" fill="none" xmlns="http://www.w3.org/2000/svg">
<path d="M32.0938 22.7188V32.0938H41.4687" stroke="#262626" stroke-width="2" stroke-miterlimit="10" stroke-linecap="round" stroke-linejoin="round"/>
<mask id="mask0_70_151" style="mask-type:luminance" maskUnits="userSpaceOnUse" x="11" y="11" width="60" height="60">
<path d="M11 11H71V71H11V11Z" fill="white"/>
</mask>
<g mask="url(#mask0_70_151)">
<path d="M46.1562 13.3438H22.7188C17.5412 13.3438 13.3438 17.5408 13.3438 22.7188V36.7812C13.3438 41.9588 17.5412 46.1562 22.7188 46.1562V55.5312L32.0938 46.1562H46.1562C51.3338 46.1562 55.5312 41.9588 55.5312 36.7812V22.7188C55.5312 17.5408 51.3338 13.3438 46.1562 13.3438Z" stroke="#262626" stroke-width="2" stroke-miterlimit="10" stroke-linecap="round" stroke-linejoin="round"/>
<path d="M63.9684 27.7229C66.7706 29.3438 68.6559 32.3736 68.6559 35.8438V49.9063C68.6559 55.0838 64.4585 59.2813 59.2809 59.2813V68.6562L49.9059 59.2813H35.8434C34.2541 59.2813 32.7574 58.8857 31.4458 58.1879" stroke="#262626" stroke-width="2" stroke-miterlimit="10" stroke-linecap="round" stroke-linejoin="round"/>
</g>
</svg>
