<svg width="80" height="81" viewBox="0 0 80 81" fill="none" xmlns="http://www.w3.org/2000/svg">
<path d="M41.6034 16.4163H42.5814C42.955 16.4163 43.2581 16.1132 43.2581 15.7396C43.2581 15.366 42.955 15.063 42.5814 15.063H41.6034C41.2298 15.063 40.9268 15.366 40.9268 15.7396C40.9268 16.1132 41.2298 16.4163 41.6034 16.4163Z" fill="#404040"/>
<path d="M27.4301 16.4163H38.1426C38.5162 16.4163 38.8193 16.1132 38.8193 15.7396C38.8193 15.366 38.5162 15.063 38.1426 15.063H27.4301C27.0565 15.063 26.7534 15.366 26.7534 15.7396C26.7534 16.1132 27.0565 16.4163 27.4301 16.4163Z" fill="#404040"/>
<path d="M35.0083 61.4663C33.706 61.4663 32.647 62.5254 32.647 63.8276C32.647 65.129 33.7061 66.1881 35.0083 66.1881C36.3071 66.1881 37.3644 65.129 37.3644 63.8276C37.3644 62.5253 36.3071 61.4663 35.0083 61.4663ZM35.0083 64.8347C34.4524 64.8347 34.0003 64.3828 34.0003 63.8276C34.0003 63.2717 34.4522 62.8196 35.0083 62.8196C35.5607 62.8196 36.011 63.2716 36.011 63.8276C36.0111 64.3828 35.5607 64.8347 35.0083 64.8347Z" fill="#404040"/>
<path d="M18.6508 32.0883H26.7525C27.1261 32.0883 27.4292 31.7853 27.4292 31.4117V23.309C27.4292 22.9354 27.1261 22.6323 26.7525 22.6323H18.6508C18.2772 22.6323 17.9741 22.9354 17.9741 23.309V31.4117C17.974 31.7851 18.2772 32.0883 18.6508 32.0883ZM19.3274 23.9856H26.0758V30.7349H19.3274V23.9856Z" fill="#404040"/>
<path d="M24.0307 25.5108L21.7663 27.7752L21.3724 27.3813C21.108 27.117 20.6798 27.117 20.4156 27.3813C20.1512 27.6457 20.1512 28.0739 20.4156 28.3382L21.2879 29.2105C21.4201 29.3427 21.5928 29.4088 21.7664 29.4088C21.9399 29.4088 22.1127 29.3427 22.2449 29.2105L24.9878 26.4676C25.2521 26.2032 25.2521 25.775 24.9878 25.5108C24.7233 25.2464 24.2951 25.2464 24.0307 25.5108Z" fill="#404040"/>
<path d="M30.9033 23.309C30.9033 23.6826 31.2064 23.9856 31.58 23.9856H51.3609C51.7345 23.9856 52.0375 23.6826 52.0375 23.309C52.0375 22.9354 51.7345 22.6323 51.3609 22.6323H31.58C31.2065 22.6322 30.9033 22.9354 30.9033 23.309Z" fill="#404040"/>
<path d="M51.3609 26.6836H31.58C31.2064 26.6836 30.9033 26.9866 30.9033 27.3602C30.9033 27.7338 31.2064 28.0369 31.58 28.0369H51.3609C51.7345 28.0369 52.0375 27.7338 52.0375 27.3602C52.0376 26.9866 51.7345 26.6836 51.3609 26.6836Z" fill="#404040"/>
<path d="M31.517 32.1516H43.863C44.2366 32.1516 44.5397 31.8486 44.5397 31.475C44.5397 31.1014 44.2366 30.7983 43.863 30.7983H31.517C31.1434 30.7983 30.8403 31.1014 30.8403 31.475C30.8402 31.8486 31.1434 32.1516 31.517 32.1516Z" fill="#404040"/>
<path d="M18.6508 45.165H26.7525C27.1261 45.165 27.4292 44.8619 27.4292 44.4883V36.3856C27.4292 36.012 27.1261 35.709 26.7525 35.709H18.6508C18.2772 35.709 17.9741 36.012 17.9741 36.3856V44.4883C17.974 44.8619 18.2772 45.165 18.6508 45.165ZM19.3274 37.0623H26.0758V43.8116H19.3274V37.0623Z" fill="#404040"/>
<path d="M24.0307 38.5865L21.7663 40.8518L21.3724 40.4579C21.108 40.1936 20.6798 40.1936 20.4156 40.4579C20.1512 40.7223 20.1512 41.1505 20.4156 41.4148L21.2879 42.2871C21.4148 42.414 21.5866 42.4854 21.7664 42.4854C21.9462 42.4854 22.1179 42.414 22.2449 42.2871L24.9878 39.5433C25.2521 39.2789 25.2521 38.8507 24.9878 38.5865C24.7233 38.3221 24.2951 38.3221 24.0307 38.5865Z" fill="#404040"/>
<path d="M51.3609 35.709H31.58C31.2064 35.709 30.9033 36.012 30.9033 36.3856C30.9033 36.7592 31.2064 37.0623 31.58 37.0623H51.3609C51.7345 37.0623 52.0375 36.7592 52.0375 36.3856C52.0375 36.012 51.7345 35.709 51.3609 35.709Z" fill="#404040"/>
<path d="M51.3609 39.7603H31.58C31.2064 39.7603 30.9033 40.0633 30.9033 40.4369C30.9033 40.8105 31.2064 41.1135 31.58 41.1135H51.3609C51.7345 41.1135 52.0375 40.8105 52.0375 40.4369C52.0376 40.0633 51.7345 39.7603 51.3609 39.7603Z" fill="#404040"/>
<path d="M31.58 45.1648H43.926C44.2996 45.1648 44.6027 44.8618 44.6027 44.4882C44.6027 44.1146 44.2996 43.8115 43.926 43.8115H31.58C31.2064 43.8115 30.9033 44.1146 30.9033 44.4882C30.9033 44.8618 31.2065 45.1648 31.58 45.1648Z" fill="#404040"/>
<path d="M18.6508 58.2416H26.7525C27.1261 58.2416 27.4292 57.9386 27.4292 57.565V49.4623C27.4292 49.0887 27.1261 48.7856 26.7525 48.7856H18.6508C18.2772 48.7856 17.9741 49.0887 17.9741 49.4623V57.565C17.974 57.9385 18.2772 58.2416 18.6508 58.2416ZM19.3274 50.1389H26.0758V56.8882H19.3274V50.1389Z" fill="#404040"/>
<path d="M24.0307 51.663L21.7663 53.9275L21.3724 53.5345C21.108 53.2693 20.6798 53.2711 20.4156 53.5345C20.1512 53.7989 20.1512 54.2279 20.4156 54.4914L21.2879 55.3628C21.4201 55.4949 21.5937 55.561 21.7664 55.561C21.9399 55.561 22.1127 55.4949 22.2449 55.3628L24.9878 52.6199C25.2521 52.3555 25.2521 51.9273 24.9878 51.663C24.7233 51.3988 24.2951 51.3988 24.0307 51.663Z" fill="#404040"/>
<path d="M51.3609 48.7856H31.58C31.2064 48.7856 30.9033 49.0887 30.9033 49.4623C30.9033 49.8359 31.2064 50.1389 31.58 50.1389H51.3609C51.7345 50.1389 52.0375 49.8359 52.0375 49.4623C52.0376 49.0887 51.7345 48.7856 51.3609 48.7856Z" fill="#404040"/>
<path d="M51.3609 52.8369H31.58C31.2064 52.8369 30.9033 53.14 30.9033 53.5136C30.9033 53.8872 31.2064 54.1902 31.58 54.1902H51.3609C51.7345 54.1902 52.0375 53.8872 52.0375 53.5136C52.0376 53.1401 51.7345 52.8369 51.3609 52.8369Z" fill="#404040"/>
<path d="M43.9261 56.8882H31.58C31.2064 56.8882 30.9033 57.1912 30.9033 57.5648C30.9033 57.9384 31.2064 58.2415 31.58 58.2415H43.926C44.2996 58.2415 44.6027 57.9384 44.6027 57.5648C44.6027 57.1912 44.2997 56.8882 43.9261 56.8882Z" fill="#404040"/>
<path d="M13.8032 64.8611C13.8032 67.2241 15.7258 69.1467 18.0889 69.1467H51.7975C53.0705 69.1467 54.2129 68.5862 54.9978 67.7016C56.1667 68.5658 57.6064 69.0837 59.1684 69.0837C63.0444 69.0837 66.1969 65.9266 66.1969 62.0462C66.1969 58.1702 63.0444 55.0177 59.1684 55.0177C58.0608 55.0177 57.0162 55.2816 56.0832 55.7388V16.1392C56.0832 13.7761 54.1606 11.8535 51.7975 11.8535H18.0889C15.7258 11.8535 13.8032 13.7761 13.8032 16.1392V64.8611ZM59.1685 56.3711C62.2982 56.3711 64.8438 58.9166 64.8438 62.0463C64.8438 65.1804 62.2982 67.7304 59.1685 67.7304C56.0344 67.7304 53.4844 65.1805 53.4844 62.0463C53.4844 58.9166 56.0343 56.3711 59.1685 56.3711ZM15.1566 16.1392C15.1566 14.5223 16.4722 13.2068 18.089 13.2068H51.7976C53.4145 13.2068 54.73 14.5223 54.73 16.1392V56.5982C53.1458 57.8882 52.1312 59.8503 52.1312 62.0463C52.1312 63.8746 52.8378 65.5368 53.9848 66.7894C53.4492 67.4005 52.6727 67.7934 51.7976 67.7934H18.0889C16.4721 67.7934 15.1565 66.4779 15.1565 64.8611L15.1566 16.1392Z" fill="#404040"/>
<path d="M57.7038 64.2066C57.836 64.3387 58.0087 64.4048 58.1823 64.4048C58.3558 64.4048 58.5286 64.3387 58.6608 64.2066L62.0169 60.8504C62.2813 60.5861 62.2813 60.1579 62.0169 59.8936C61.7525 59.6292 61.3243 59.6292 61.0601 59.8936L58.1824 62.7713L57.2669 61.8558C57.0026 61.5914 56.5744 61.5914 56.3101 61.8558C56.0457 62.1202 56.0457 62.5484 56.3101 62.8126L57.7038 64.2066Z" fill="#404040"/>
</svg>
