<svg width="81" height="80" viewBox="0 0 81 80" fill="none" xmlns="http://www.w3.org/2000/svg">
<g clip-path="url(#clip0_70_176)">
<path d="M19.9062 23.4766C23.1423 23.4766 25.7656 20.8532 25.7656 17.6172C25.7656 14.3811 23.1423 11.7578 19.9062 11.7578C16.6702 11.7578 14.0469 14.3811 14.0469 17.6172C14.0469 20.8532 16.6702 23.4766 19.9062 23.4766Z" stroke="#262626" stroke-width="2" stroke-miterlimit="10"/>
<path d="M41 27.6367C45.3848 27.6367 48.9395 24.0821 48.9395 19.6973C48.9395 15.3124 45.3848 11.7578 41 11.7578C36.6152 11.7578 33.0605 15.3124 33.0605 19.6973C33.0605 24.0821 36.6152 27.6367 41 27.6367Z" stroke="#262626" stroke-width="2" stroke-miterlimit="10"/>
<path d="M19.9062 47.6172V68.2422" stroke="#262626" stroke-width="2" stroke-miterlimit="10"/>
<path d="M26.9375 49.375H33.9688V35.7812C33.9688 32.8688 31.6078 30.5078 28.6953 30.5078H12.875V68.2422H26.9375V35.7812" stroke="#262626" stroke-width="2" stroke-miterlimit="10"/>
<path d="M62.0938 23.4766C65.3298 23.4766 67.9531 20.8532 67.9531 17.6172C67.9531 14.3811 65.3298 11.7578 62.0938 11.7578C58.8577 11.7578 56.2344 14.3811 56.2344 17.6172C56.2344 20.8532 58.8577 23.4766 62.0938 23.4766Z" stroke="#262626" stroke-width="2" stroke-miterlimit="10"/>
<path d="M62.0938 47.6172V68.2422" stroke="#262626" stroke-width="2" stroke-miterlimit="10"/>
<path d="M55.0625 49.375H48.0312V35.7812C48.0312 32.8688 50.3922 30.5078 53.3047 30.5078H69.125V68.2422H55.0625V35.7812" stroke="#262626" stroke-width="2" stroke-miterlimit="10"/>
<path d="M46.6137 14.0835L35.3857 25.3115" stroke="#262626" stroke-width="2" stroke-miterlimit="10"/>
</g>
<defs>
<clipPath id="clip0_70_176">
<rect width="60" height="60" fill="white" transform="translate(11 10)"/>
</clipPath>
</defs>
</svg>
