<svg width="80" height="80" viewBox="0 0 80 80" fill="none" xmlns="http://www.w3.org/2000/svg">
<path d="M22.7061 64H57.2939C57.8467 64 58.2939 63.5527 58.2939 63V34.8232H61.2031C61.7559 34.8232 62.2031 34.376 62.2031 33.8232V29.4492C62.2031 29.0947 62.0156 28.7666 61.709 28.5869L40.5059 16.1377C40.1934 15.9541 39.8066 15.9541 39.4941 16.1377L18.2905 28.5869C17.9849 28.7666 17.7969 29.0947 17.7969 29.4492V33.8232C17.7969 34.376 18.2446 34.8232 18.7969 34.8232H21.7061V63C21.7061 63.5527 22.1533 64 22.7061 64ZM56.2939 62H23.7061V34.8232H56.2939V62ZM19.7969 30.0215L40 18.1592L60.2031 30.0215V32.8232H57.2939H22.7061H19.7969V30.0215Z" fill="#262626"/>
<path d="M30.8008 59.4863H34.6846C35.2373 59.4863 35.6846 59.039 35.6846 58.4863V57.8945H47.7549C48.416 57.8945 49.0322 57.6376 49.4902 57.1708C49.9473 56.705 50.1992 56.0927 50.1992 55.4453C50.1992 54.9027 50.0155 54.4058 49.7152 53.9998C50.0156 53.5935 50.1992 53.0963 50.1992 52.5537C50.1992 52.0104 50.0154 51.5129 49.715 51.1065C50.0154 50.7002 50.1992 50.203 50.1992 49.6601C50.1992 49.1172 50.0157 48.6199 49.7155 48.2136C50.0156 47.8069 50.1992 47.3091 50.1992 46.7656C50.1992 46.1201 49.9482 45.5068 49.4824 45.0312C49.0195 44.5703 48.4062 44.3164 47.7549 44.3164H43.9854C44.7705 42.6376 45.5996 39.999 44.1611 38.2724C43.6045 37.6015 42.7998 37.2519 42.0156 37.3525C41.3086 37.4355 40.0674 37.9208 39.6826 40.3095C39.666 40.4902 39.2568 44.749 36.1826 44.5859H35.6846V44.0761C35.6846 43.5234 35.2373 43.0761 34.6846 43.0761H30.8008C30.248 43.0761 29.8008 43.5234 29.8008 44.0761V58.4863C29.8008 59.039 30.248 59.4863 30.8008 59.4863ZM36.1328 46.5849C40.0566 46.7539 41.4854 42.6806 41.666 40.5576C41.7812 39.8457 42.0107 39.3671 42.252 39.3388C42.3672 39.3281 42.5078 39.4111 42.623 39.5507C43.5586 40.6738 42.2441 43.5556 41.4619 44.7753C41.2646 45.083 41.25 45.4746 41.4258 45.7958C41.6006 46.1162 41.9375 46.3164 42.3027 46.3164H47.7549C47.9072 46.3164 48.0107 46.3876 48.0615 46.4384C48.1494 46.5283 48.1992 46.6474 48.1992 46.7656C48.1992 47.0117 48.0029 47.2105 47.7603 47.2137C47.7574 47.2137 47.7548 47.2128 47.752 47.2128H45.332C44.7793 47.2128 44.332 47.6601 44.332 48.2128C44.332 48.3516 44.3605 48.4834 44.4114 48.6035C44.563 48.9628 44.9182 49.2148 45.333 49.2148H47.7549C47.7564 49.2148 47.7579 49.2144 47.7594 49.2144C48.0029 49.2186 48.1992 49.4157 48.1992 49.6601C48.1992 49.9062 47.999 50.1064 47.752 50.1064H46.6748C46.1221 50.1064 45.6748 50.5537 45.6748 51.1064C45.6748 51.6591 46.1221 52.1064 46.6748 52.1064H47.752C47.999 52.1064 48.1992 52.3066 48.1992 52.5537C48.1992 52.7998 47.999 52.9999 47.752 52.9999H46.6748C46.1221 52.9999 45.6748 53.4472 45.6748 54C45.6748 54.4147 45.9268 54.77 46.2861 54.9215C46.4062 54.9724 46.538 55.0009 46.6768 55.0009H47.7549C48 55.0009 48.1992 55.2001 48.1992 55.4453C48.1992 55.5986 48.125 55.707 48.0625 55.7705C48.0068 55.8271 47.9082 55.8945 47.7549 55.8945H35.6846V46.5852L36.1328 46.5849ZM31.8008 45.0761H33.6846V57.4863H31.8008V45.0761Z" fill="#262626"/>
<path d="M40 30.0537C42.2139 30.0537 44.0146 28.2529 44.0146 26.0391C44.0146 23.8252 42.2139 22.0234 40 22.0234C37.7861 22.0234 35.9854 23.8252 35.9854 26.0391C35.9854 28.2529 37.7861 30.0537 40 30.0537ZM40 24.0234C41.1113 24.0234 42.0146 24.9277 42.0146 26.0391C42.0146 27.1504 41.1113 28.0537 40 28.0537C38.8887 28.0537 37.9854 27.1504 37.9854 26.0391C37.9854 24.9277 38.8887 24.0234 40 24.0234Z" fill="#262626"/>
</svg>
