<svg width="81" height="80" viewBox="0 0 81 80" fill="none" xmlns="http://www.w3.org/2000/svg">
<path d="M17.3784 52.4832V18.2783C17.3784 16.6893 18.6664 15.4014 20.2554 15.4014H44.2061" stroke="#262626" stroke-width="1.75803" stroke-miterlimit="10" stroke-linecap="round" stroke-linejoin="round"/>
<path d="M50.7462 30.7739V66.2442C50.7462 67.8333 49.4583 69.1212 47.8693 69.1212H20.2554C18.6664 69.1212 17.3784 67.8333 17.3784 66.2442V56.6061" stroke="#262626" stroke-width="1.75803" stroke-miterlimit="10" stroke-linecap="round" stroke-linejoin="round"/>
<path d="M52.5893 30.9432C58.1299 30.9432 62.6214 26.4517 62.6214 20.9111C62.6214 15.3705 58.1299 10.8789 52.5893 10.8789C47.0487 10.8789 42.5571 15.3705 42.5571 20.9111C42.5571 26.4517 47.0487 30.9432 52.5893 30.9432Z" stroke="#262626" stroke-width="1.75803" stroke-miterlimit="10" stroke-linecap="round" stroke-linejoin="round"/>
<path d="M57.9053 18.9211L53.1679 15.6356C52.82 15.3943 52.3589 15.3943 52.011 15.6356L47.2735 18.9211C46.986 19.1205 46.8145 19.4482 46.8145 19.7981C46.8145 20.3875 47.2923 20.8654 47.8817 20.8654H48.6421V25.6032C48.6421 26.0254 48.9845 26.3678 49.4067 26.3678H55.7721C56.1944 26.3678 56.5367 26.0254 56.5367 25.6032V20.8654H57.2971C57.8865 20.8654 58.3644 20.3875 58.3644 19.7981C58.3643 19.4482 58.1928 19.1205 57.9053 18.9211Z" stroke="#262626" stroke-width="1.75803" stroke-miterlimit="10" stroke-linecap="round" stroke-linejoin="round"/>
<path d="M52.5894 20.9111V22.0971" stroke="#262626" stroke-width="1.75803" stroke-miterlimit="10" stroke-linecap="round" stroke-linejoin="round"/>
<path d="M47.1123 29.3172V62.1155H21.0112V19.0352H38.5764" stroke="#262626" stroke-width="1.75803" stroke-miterlimit="10" stroke-linecap="round" stroke-linejoin="round"/>
<path d="M41.8852 52.9492H26.2421C25.3611 52.9492 24.647 53.6633 24.647 54.5443C24.647 55.4254 25.3611 56.1395 26.2421 56.1395H41.8852C42.7662 56.1395 43.4803 55.4254 43.4803 54.5443C43.4803 53.6633 42.7662 52.9492 41.8852 52.9492Z" stroke="#262626" stroke-width="1.75803" stroke-miterlimit="10" stroke-linecap="round" stroke-linejoin="round"/>
<path d="M31.6079 65.6855H36.5165" stroke="#262626" stroke-width="1.75803" stroke-miterlimit="10" stroke-linecap="round" stroke-linejoin="round"/>
<path d="M30.5728 52.9492V57.9395" stroke="#262626" stroke-width="1.75803" stroke-miterlimit="10" stroke-linecap="round" stroke-linejoin="round"/>
<path d="M34.4419 46.0167C32.3479 45.1844 30.8677 43.1398 30.8677 40.7495C30.8677 37.6203 34.5544 30.3574 36.5335 30.3574C38.6875 30.3574 42.1993 37.6204 42.1993 40.7495C42.1993 43.1755 40.6744 45.2454 38.5309 46.0531" stroke="#262626" stroke-width="1.75803" stroke-miterlimit="10" stroke-linecap="round" stroke-linejoin="round"/>
<path d="M29.8467 32.496C29.8467 33.5782 28.9695 34.4555 27.8872 34.4555C26.805 34.4555 25.9277 33.5782 25.9277 32.496C25.9277 31.4137 27.2028 28.9019 27.8872 28.9019C28.6322 28.902 29.8467 31.4138 29.8467 32.496Z" stroke="#262626" stroke-width="1.75803" stroke-miterlimit="10" stroke-linecap="round" stroke-linejoin="round"/>
</svg>
